<svg width="27" height="33" viewBox="0 0 27 33" fill="none" xmlns="http://www.w3.org/2000/svg">
<g clip-path="url(#clip0_1_260)" filter="url(#filter0_d_1_260)">
<path d="M22.8216 14.6372C22.5352 10.9087 20.7993 8.57221 19.2678 6.5104C17.8498 4.60161 16.625 2.95327 16.625 0.521725C16.625 0.326413 16.5156 0.147897 16.3422 0.0583953C16.1682 -0.0316437 15.9592 -0.0168976 15.801 0.0980438C13.501 1.74384 11.582 4.51772 10.9116 7.1644C10.4462 9.00703 10.3847 11.0785 10.376 12.4466C8.252 11.993 7.77085 8.81582 7.76577 8.7812C7.74185 8.6164 7.64116 8.47299 7.49468 8.39468C7.34668 8.31738 7.17271 8.31176 7.02266 8.38603C6.91128 8.43994 4.28877 9.77246 4.13618 15.0928C4.12549 15.2698 4.125 15.4474 4.125 15.6249C4.125 20.7936 8.33081 24.9992 13.5 24.9992C13.5071 24.9997 13.5147 25.0007 13.5208 24.9992C13.5229 24.9992 13.5249 24.9992 13.5274 24.9992C18.6839 24.9844 22.875 20.7845 22.875 15.6249C22.875 15.3649 22.8216 14.6372 22.8216 14.6372ZM13.5 23.9576C11.7768 23.9576 10.375 22.4644 10.375 20.6289C10.375 20.5664 10.3745 20.5033 10.3791 20.426C10.3999 19.6519 10.5469 19.1235 10.7082 18.772C11.0103 19.421 11.5504 20.0176 12.4278 20.0176C12.7157 20.0176 12.9487 19.7846 12.9487 19.4968C12.9487 18.7553 12.964 17.8998 13.1486 17.1277C13.3129 16.4432 13.7055 15.7148 14.203 15.131C14.4242 15.8888 14.8556 16.5021 15.2767 17.1008C15.8794 17.9572 16.5025 18.8427 16.6119 20.3527C16.6185 20.4422 16.6251 20.5323 16.6251 20.6289C16.625 22.4644 15.2232 23.9576 13.5 23.9576Z" fill="white"/>
</g>
<defs>
<filter id="filter0_d_1_260" x="-3" y="0" width="33" height="33" filterUnits="userSpaceOnUse" color-interpolation-filters="sRGB">
<feFlood flood-opacity="0" result="BackgroundImageFix"/>
<feColorMatrix in="SourceAlpha" type="matrix" values="0 0 0 0 0 0 0 0 0 0 0 0 0 0 0 0 0 0 127 0" result="hardAlpha"/>
<feOffset dy="4"/>
<feGaussianBlur stdDeviation="2"/>
<feComposite in2="hardAlpha" operator="out"/>
<feColorMatrix type="matrix" values="0 0 0 0 0 0 0 0 0 0 0 0 0 0 0 0 0 0 0.25 0"/>
<feBlend mode="normal" in2="BackgroundImageFix" result="effect1_dropShadow_1_260"/>
<feBlend mode="normal" in="SourceGraphic" in2="effect1_dropShadow_1_260" result="shape"/>
</filter>
<clipPath id="clip0_1_260">
<rect width="25" height="25" fill="white" transform="translate(1)"/>
</clipPath>
</defs>
</svg>
